<svg version="1.1" xmlns="http://www.w3.org/2000/svg" xmlns:xlink="http://www.w3.org/1999/xlink" width="48" height="48"><defs><linearGradient x1="11.08449" y1="13.43277" x2="70.62084" y2="68.27256" gradientUnits="userSpaceOnUse" id="color-1"><stop offset="0" stop-color="#000000" stop-opacity="0.06"></stop><stop offset="1" stop-color="#000000" stop-opacity="0"></stop></linearGradient><filter id="dropshadow-base"><feColorMatrix type="matrix" values="0 0 0 0 0  0 0 0 0 0  0 0 0 0 0  0 0 0 .8 0"></feColorMatrix> <feOffset dx="0" dy="1"></feOffset> <feGaussianBlur stdDeviation="1"></feGaussianBlur> <feComposite in="SourceGraphic"></feComposite></filter><filter id="dropshadow-banner" x="-10%" y="-10%" width="120%" height="130%"><feColorMatrix type="matrix" values="0 0 0 0 0  0 0 0 0 0  0 0 0 0 0  0 0 0 .4 0"></feColorMatrix> <feOffset dx="0" dy="1"></feOffset> <feGaussianBlur stdDeviation="0.5"></feGaussianBlur> <feComposite in="SourceGraphic"></feComposite></filter></defs><g fill="none" fill-rule="none" stroke="none" stroke-width="none" stroke-linecap="butt" stroke-linejoin="miter" stroke-miterlimit="10" stroke-dasharray="" stroke-dashoffset="0" font-family="none" font-weight="none" font-size="none" text-anchor="none" style="mix-blend-mode: normal"><path d="M2,24c0,-12.15026 9.84974,-22 22,-22c12.15026,0 22,9.84974 22,22c0,12.15026 -9.84974,22 -22,22c-12.15026,0 -22,-9.84974 -22,-22z" id="base 1 9" fill="#ffffff" fill-rule="nonzero" stroke-width="1"></path><path d="M11.42888,28.07641c-0.21254,-0.21254 -0.34387,-0.50619 -0.34387,-0.83039v-6.7688c0,-0.11977 0.05401,-0.364 0.12563,-0.50607c0.10567,-0.22191 0.28532,-0.42502 0.52248,-0.54361l11.74123,-5.8706c0.3311,-0.16555 0.72091,-0.16555 1.05082,0l11.74123,5.8706c0.11479,0.0574 0.21725,0.132 0.30499,0.21974l8.94795,8.94795c-1.78211,8.38653 -8.34271,15.00632 -16.69704,16.87462zM11.42851,34.22322c-0.21252,-0.21252 -0.34402,-0.50605 -0.34402,-0.8301v-2.34823c0,-0.64813 0.52601,-1.17412 1.17412,-1.17412c0.32406,0 0.61759,0.1315 0.8301,0.34402l0,0l15.33941,15.33941c-1.4304,0.29231 -2.91134,0.44581 -4.42813,0.44581c-0.27095,0 -0.54075,-0.0049 -0.80932,-0.01461z" fill="url(#color-1)" fill-rule="nonzero" stroke-width="1"></path><path transform="translate(-6.99723,-6.99723) scale(1.29155,1.29155)" d="M33.49743,20.45971c0.31999,0.16001 0.51636,0.49273 0.50182,0.85091c-0.01456,0.35817 -0.2391,0.67362 -0.5709,0.80635l-9.41535,3.63086l-8.19443,-3.4136v4.17904c0,0.50182 -0.40727,0.90908 -0.90908,0.90908c-0.50272,0 -0.90908,-0.40727 -0.90908,-0.90908v-5.24083c0,-0.09273 0.04182,-0.28183 0.09727,-0.39183c0.08182,-0.17182 0.22091,-0.32908 0.40454,-0.4209l9.0908,-4.54539c0.25636,-0.12818 0.55817,-0.12818 0.81361,0l9.0908,4.54539zM24.32623,27.57644l6.03718,-2.32271v2.54725c0,0.34364 -0.19454,0.65908 -0.50272,0.81271c-1.55633,0.77818 -3.16722,1.74453 -5.86083,1.74453c-2.69541,0 -4.30175,-0.96453 -5.86083,-1.74453c-0.30818,-0.15363 -0.50272,-0.46907 -0.50272,-0.81271v-2.73997l6.01355,2.50542c0.11182,0.04636 0.23092,0.07001 0.34999,0.07001c0.11092,0 0.22091,-0.02001 0.32637,-0.06zM15.81816,29.45459v1.81815c0,0.50182 -0.40727,0.90908 -0.90908,0.90908c-0.50181,0 -0.90908,-0.40727 -0.90908,-0.90908v-1.81815c0,-0.50182 0.40727,-0.90908 0.90908,-0.90908c0.50181,0 0.90908,0.40727 0.90908,0.90908z" fill="none" fill-rule="evenodd" stroke-width="0"></path><g fill-rule="evenodd" stroke-width="1"><path d="M36.26641,19.42753l-11.74123,-5.87061c-0.32991,-0.16555 -0.71971,-0.16555 -1.05082,0l-11.74123,5.87061c-0.23717,0.1186 -0.41681,0.3217 -0.52248,0.54362c-0.07162,0.14206 -0.12563,0.3863 -0.12563,0.50606v6.76881c0,0.64812 0.52483,1.17413 1.17412,1.17413c0.64812,0 1.17412,-0.526 1.17412,-1.17413v-5.39745l10.58352,4.40884l12.1604,-4.68944c0.42854,-0.17143 0.71855,-0.57884 0.73735,-1.04144c0.01878,-0.4626 -0.23484,-0.89234 -0.64812,-1.09899" fill="#47485d"></path><path d="M23.99982,28.69665c-0.15379,0 -0.30762,-0.03054 -0.45203,-0.09042l-7.76681,-3.23588v3.53881c0,0.44382 0.25126,0.85123 0.64929,1.04965c2.01363,1.00741 4.0883,2.25315 7.56956,2.25315c3.47893,0 5.55948,-1.2481 7.56956,-2.25315c0.39803,-0.19842 0.64929,-0.60583 0.64929,-1.04965v-3.28991l-7.79732,2.9999c-0.13621,0.05164 -0.27827,0.07749 -0.42152,0.07749z" fill="#5a88fb"></path><path d="M12.25861,29.87075c-0.64811,0 -1.17412,0.526 -1.17412,1.17413v2.34823c0,0.64812 0.52601,1.17413 1.17412,1.17413c0.64812,0 1.17412,-0.526 1.17412,-1.17413v-2.34823c0,-0.64812 -0.52601,-1.17413 -1.17412,-1.17413z" fill="#5a88fb"></path></g><path d="M2,24c0,-12.15026 9.84974,-22 22,-22c12.15026,0 22,9.84974 22,22c0,12.15026 -9.84974,22 -22,22c-12.15026,0 -22,-9.84974 -22,-22z" id="base 1 5 1" fill="none" fill-rule="nonzero" stroke-width="1"></path><path d="M2,24c0,-12.15026 9.84974,-22 22,-22c12.15026,0 22,9.84974 22,22c0,12.15026 -9.84974,22 -22,22c-12.15026,0 -22,-9.84974 -22,-22z" id="base 1 1 1" fill="none" fill-rule="nonzero" stroke-width="1"></path><g fill="none" fill-rule="nonzero" stroke-width="1" font-family="Roboto, sans-serif" font-weight="400" font-size="14" text-anchor="start"></g><rect x="2" y="2" width="44" height="22" fill="none" fill-rule="nonzero" stroke-width="1"></rect><path d="M2,24v-22h44v22z" fill="none" fill-rule="nonzero" stroke-width="1"></path><path d="M2,24v-22h44v22z" fill="none" fill-rule="nonzero" stroke-width="1"></path><path d="M2,24v-22h44v22z" fill="none" fill-rule="nonzero" stroke-width="1"></path><path d="M2,24v-22h44v22z" fill="none" fill-rule="nonzero" stroke-width="1"></path><g fill="none" fill-rule="nonzero" stroke-width="1" font-family="Roboto, sans-serif" font-weight="400" font-size="14" text-anchor="start"></g><rect x="2" y="2" width="44" height="22" fill="none" fill-rule="nonzero" stroke-width="1"></rect><path d="M2,24v-22h44v22z" fill="none" fill-rule="nonzero" stroke-width="1"></path><path d="M2,24v-22h44v22z" fill="none" fill-rule="nonzero" stroke-width="1"></path><path d="M2,24v-22h44v22z" fill="none" fill-rule="nonzero" stroke-width="1"></path><path d="M2,24v-22h44v22z" fill="none" fill-rule="nonzero" stroke-width="1"></path></g></svg>