<svg width="34" height="34" viewBox="0 0 34 34" fill="none" xmlns="http://www.w3.org/2000/svg">
<path fill-rule="evenodd" clip-rule="evenodd" d="M9.92017 16.5352H23.1482V13.2282H9.92017V16.5352Z" fill="#47485D"/>
<path fill-rule="evenodd" clip-rule="evenodd" d="M9.92017 16.5352H23.1482V13.2282H9.92017V16.5352Z" fill="#5A88FB"/>
<path fill-rule="evenodd" clip-rule="evenodd" d="M26.456 9.921C24.6305 9.921 23.149 8.43947 23.149 6.614C23.149 4.78854 24.6305 3.307 26.456 3.307C28.2814 3.307 29.763 4.78854 29.763 6.614C29.763 8.43947 28.2814 9.921 26.456 9.921ZM6.61403 9.921C4.78857 9.921 3.30703 8.43947 3.30703 6.614C3.30703 4.78854 4.78857 3.307 6.61403 3.307C8.4395 3.307 9.92103 4.78854 9.92103 6.614C9.92103 8.43947 8.4395 9.921 6.61403 9.921ZM26.456 0H6.614C2.96142 0 0 2.96142 0 6.614C0 10.2666 2.96142 13.228 6.614 13.228C10.2666 13.228 13.228 10.2666 13.228 6.614C13.228 5.40364 12.8791 4.28256 12.3103 3.307H20.7597C20.1909 4.28256 19.842 5.40364 19.842 6.614C19.842 10.2666 22.8034 13.228 26.456 13.228C30.1086 13.228 33.07 10.2666 33.07 6.614C33.07 2.96142 30.1086 0 26.456 0Z" fill="#47485D"/>
<path fill-rule="evenodd" clip-rule="evenodd" d="M9.9209 33.07H13.2279V21.4955H14.8814V33.07H18.1884V21.4955H19.8419V33.07H23.1489V18.1885H9.9209V33.07Z" fill="#47485D"/>
</svg>
