<svg width="90" height="29" viewBox="0 0 90 29" fill="none" xmlns="http://www.w3.org/2000/svg">
<path d="M54.1794 20.993H50.2882C50.235 20.9132 50.2084 20.8068 50.2084 20.6737C50.2084 20.5274 50.255 20.3944 50.3481 20.2747L51.6851 20.115L50.408 16.8025H44.9803L43.7431 20.0751H44.9004C45.1133 20.0751 45.2197 20.1682 45.2197 20.3545C45.2197 20.4476 45.1865 20.6072 45.1199 20.8334L45.08 20.993H41.2487C41.1955 20.9132 41.1689 20.8068 41.1689 20.6737C41.1689 20.5274 41.2154 20.3944 41.3086 20.2747L42.6455 20.115L47.315 8.08227C47.448 8.05566 47.5943 8.04236 47.754 8.04236C47.9136 8.04236 48.0599 8.05566 48.193 8.08227L52.8424 20.0751H53.9998C54.2127 20.0751 54.3191 20.1682 54.3191 20.3545C54.3191 20.4476 54.2858 20.6072 54.2193 20.8334L54.1794 20.993ZM50.0687 15.9046L47.6941 9.63874L45.3195 15.9046H50.0687Z" fill="#5A88FB"/>
<path d="M63.0368 19.3567L60.8418 15.5454H58.0681V20.0751H59.2255C59.4383 20.0751 59.5448 20.1682 59.5448 20.3545C59.5448 20.4476 59.5115 20.6072 59.445 20.8334L59.4051 20.993H55.5538C55.5006 20.9132 55.474 20.8068 55.474 20.6737C55.474 20.5274 55.5205 20.3944 55.6137 20.2747L56.9506 20.115V9.0401H55.7933C55.5804 9.0401 55.474 8.94698 55.474 8.76073C55.474 8.66761 55.5072 8.50797 55.5738 8.28182L55.6137 8.12218H60.8618C61.6068 8.12218 62.2387 8.24191 62.7575 8.48136C63.2763 8.70752 63.6954 9.01349 64.0146 9.39929C64.3339 9.77177 64.5667 10.1775 64.7131 10.6165C64.8594 11.0422 64.9326 11.448 64.9326 11.8338C64.9326 12.2861 64.8328 12.765 64.6332 13.2705C64.447 13.7627 64.1344 14.2084 63.6954 14.6075C63.2564 15.0066 62.6843 15.2793 61.9792 15.4256L64.1743 19.0774C64.427 19.5031 64.6532 19.7891 64.8527 19.9354C65.0523 20.0685 65.3183 20.135 65.6509 20.135C65.7574 20.135 65.8704 20.135 65.9902 20.135C66.1232 20.1217 66.2363 20.1084 66.3294 20.0951C66.4358 20.2813 66.4957 20.5274 66.509 20.8334C66.0567 20.993 65.631 21.0728 65.2319 21.0728C64.8062 21.0728 64.4204 20.9398 64.0745 20.6737C63.7286 20.3944 63.3827 19.9554 63.0368 19.3567ZM58.0681 14.6274H60.8618C61.7531 14.6274 62.4582 14.3614 62.977 13.8293C63.4958 13.2838 63.7552 12.6187 63.7552 11.8338C63.7552 11.0489 63.4958 10.3904 62.977 9.85825C62.4582 9.31281 61.7531 9.0401 60.8618 9.0401H58.0681V14.6274Z" fill="#5A88FB"/>
<path d="M72.7771 20.993H67.9281C67.8749 20.9132 67.8483 20.8068 67.8483 20.6737C67.8483 20.5274 67.8949 20.3944 67.988 20.2747L69.325 20.115V9.0401H68.1676C67.9547 9.0401 67.8483 8.94698 67.8483 8.76073C67.8483 8.66761 67.8816 8.50797 67.9481 8.28182L67.988 8.12218H72.9567C73.7948 8.12218 74.4999 8.24191 75.0719 8.48136C75.6573 8.72082 76.1229 9.03345 76.4688 9.41924C76.828 9.80503 77.0874 10.2307 77.247 10.6963C77.4199 11.1487 77.5064 11.5943 77.5064 12.0333C77.5064 12.4723 77.4199 12.9246 77.247 13.3902C77.0874 13.8426 76.828 14.2616 76.4688 14.6474C76.1229 15.0332 75.6573 15.3458 75.0719 15.5853C74.4999 15.8247 73.7948 15.9445 72.9567 15.9445H70.4424V20.0751H72.5975C72.8104 20.0751 72.9168 20.1682 72.9168 20.3545C72.9168 20.4476 72.8836 20.6072 72.817 20.8334L72.7771 20.993ZM70.4424 15.0265H72.9567C73.9944 15.0265 74.8125 14.7605 75.4112 14.2283C76.0231 13.6829 76.3291 12.9512 76.3291 12.0333C76.3291 11.1154 76.0231 10.3904 75.4112 9.85825C74.8125 9.31281 73.9944 9.0401 72.9567 9.0401H70.4424V15.0265Z" fill="#5A88FB"/>
<path d="M89.8603 20.993H85.9691C85.9159 20.9132 85.8893 20.8068 85.8893 20.6737C85.8893 20.5274 85.9359 20.3944 86.029 20.2747L87.366 20.115L86.0889 16.8025H80.6611L79.4239 20.0751H80.5813C80.7942 20.0751 80.9006 20.1682 80.9006 20.3545C80.9006 20.4476 80.8673 20.6072 80.8008 20.8334L80.7609 20.993H76.9296C76.8764 20.9132 76.8498 20.8068 76.8498 20.6737C76.8498 20.5274 76.8963 20.3944 76.9895 20.2747L78.3264 20.115L82.9959 8.08227C83.1289 8.05566 83.2752 8.04236 83.4349 8.04236C83.5945 8.04236 83.7408 8.05566 83.8739 8.08227L88.5233 20.0751H89.6807C89.8936 20.0751 90 20.1682 90 20.3545C90 20.4476 89.9667 20.6072 89.9002 20.8334L89.8603 20.993ZM85.7496 15.9046L83.375 9.63874L81.0004 15.9046H85.7496Z" fill="#5A88FB"/>
<path fill-rule="evenodd" clip-rule="evenodd" d="M33.9756 8.0879L18.1349 0.167516C17.6898 -0.0558387 17.1638 -0.0558387 16.7171 0.167516L0.876363 8.0879C0.55638 8.24789 0.314016 8.52193 0.171449 8.82133C0.0748206 9.013 0.00195312 9.34249 0.00195312 9.50406V18.6363C0.00195312 19.5107 0.710035 20.2203 1.58603 20.2203C2.46044 20.2203 3.17011 19.5107 3.17011 18.6363V11.3543L17.449 17.3025L33.8553 10.9757C34.4334 10.7444 34.8247 10.1947 34.8501 9.57059C34.8754 8.94647 34.5332 8.3667 33.9756 8.0879" fill="#47485D"/>
<path fill-rule="evenodd" clip-rule="evenodd" d="M17.4248 20.5934C17.2173 20.5934 17.0098 20.5522 16.815 20.4714L6.3363 16.1057V20.8801C6.3363 21.4789 6.6753 22.0286 7.2123 22.2963C9.92899 23.6554 12.7281 25.3361 17.4248 25.3361C22.1185 25.3361 24.9254 23.6523 27.6374 22.2963C28.1744 22.0286 28.5134 21.4789 28.5134 20.8801V16.4415L17.9935 20.4889C17.8098 20.5586 17.6181 20.5934 17.4248 20.5934" fill="#5A88FB"/>
<path fill-rule="evenodd" clip-rule="evenodd" d="M1.58408 22.1774C0.709666 22.1774 0 22.8871 0 23.7615V26.9297C0 27.8041 0.709666 28.5137 1.58408 28.5137C2.45849 28.5137 3.16815 27.8041 3.16815 26.9297V23.7615C3.16815 22.8871 2.45849 22.1774 1.58408 22.1774" fill="#5A88FB"/>
</svg>
