<svg width="28" height="23" viewBox="0 0 28 23" fill="none" xmlns="http://www.w3.org/2000/svg">
<path fill-rule="evenodd" clip-rule="evenodd" d="M24.3529 17.5882H16.2353C15.8768 17.5882 15.5318 17.7317 15.2788 17.9847L14.8824 18.3811V4.61894L16.7954 2.70589H24.3529V17.5882ZM10.8235 17.5882H2.70588V2.70589H10.2634L12.1765 4.61894V18.3811L11.7801 17.9847C11.5271 17.7317 11.1821 17.5882 10.8235 17.5882ZM25.7059 0H16.2353C15.8768 0 15.5318 0.143412 15.2788 0.396412L13.5294 2.14576L11.7801 0.396412C11.5271 0.143412 11.1821 0 10.8235 0H1.35294C0.606118 0 0 0.606118 0 1.35294V18.9412C0 19.688 0.606118 20.2941 1.35294 20.2941H10.2634L12.5729 22.6036C12.8367 22.8674 13.1831 23 13.5294 23C13.8758 23 14.2221 22.8674 14.4859 22.6036L16.7954 20.2941H25.7059C26.4527 20.2941 27.0588 19.688 27.0588 18.9412V1.35294C27.0588 0.606118 26.4527 0 25.7059 0Z" fill="#696B7A"/>
<path fill-rule="evenodd" clip-rule="evenodd" d="M24.3529 17.5882H16.2353C15.8768 17.5882 15.5318 17.7317 15.2788 17.9847L14.8824 18.3811V4.61894L16.7954 2.70589H24.3529V17.5882ZM10.8235 17.5882H2.70588V2.70589H10.2634L12.1765 4.61894V18.3811L11.7801 17.9847C11.5271 17.7317 11.1821 17.5882 10.8235 17.5882ZM25.7059 0H16.2353C15.8768 0 15.5318 0.143412 15.2788 0.396412L13.5294 2.14576L11.7801 0.396412C11.5271 0.143412 11.1821 0 10.8235 0H1.35294C0.606118 0 0 0.606118 0 1.35294V18.9412C0 19.688 0.606118 20.2941 1.35294 20.2941H10.2634L12.5729 22.6036C12.8367 22.8674 13.1831 23 13.5294 23C13.8758 23 14.2221 22.8674 14.4859 22.6036L16.7954 20.2941H25.7059C26.4527 20.2941 27.0588 19.688 27.0588 18.9412V1.35294C27.0588 0.606118 26.4527 0 25.7059 0Z" fill="#47485D"/>
<path fill-rule="evenodd" clip-rule="evenodd" d="M12.1743 3.49871V22.2072L12.5707 22.6036C12.8345 22.8674 13.1809 23 13.5272 23C13.8736 23 14.2199 22.8674 14.4838 22.6036L16.7932 20.2941H25.7037C26.4505 20.2941 27.0566 19.688 27.0566 18.9412V1.35294C27.0566 0.606118 26.4505 0 25.7037 0H16.2331C15.8746 0 15.5296 0.143412 15.2766 0.396412L12.1743 3.49871ZM16.2331 17.5882H24.3508V2.70588H16.7932L14.8802 4.61894V18.3811L15.2766 17.9846C15.5296 17.7316 15.8746 17.5882 16.2331 17.5882Z" fill="#4A5EF5"/>
<path fill-rule="evenodd" clip-rule="evenodd" d="M12.1743 3.49871V22.2072L12.5707 22.6036C12.8345 22.8674 13.1809 23 13.5272 23C13.8736 23 14.2199 22.8674 14.4838 22.6036L16.7932 20.2941H25.7037C26.4505 20.2941 27.0566 19.688 27.0566 18.9412V1.35294C27.0566 0.606118 26.4505 0 25.7037 0H16.2331C15.8746 0 15.5296 0.143412 15.2766 0.396412L12.1743 3.49871ZM16.2331 17.5882H24.3508V2.70588H16.7932L14.8802 4.61894V18.3811L15.2766 17.9846C15.5296 17.7316 15.8746 17.5882 16.2331 17.5882Z" fill="#5A88FB"/>
</svg>
