<svg width="34" height="35" viewBox="0 0 34 35" fill="none" xmlns="http://www.w3.org/2000/svg">
<path fill-rule="evenodd" clip-rule="evenodd" d="M9.91329 31.4419H23.1552C23.1552 28.5651 20.3711 26.4762 16.5359 26.4762C12.699 26.4762 9.91329 28.5651 9.91329 31.4419V31.4419ZM26.4653 34.7523H6.60254V31.4419C6.60254 26.7244 10.873 23.1657 16.5356 23.1657C22.1965 23.1657 26.4653 26.7244 26.4653 31.4419V34.7523Z" fill="#47485D"/>
<path fill-rule="evenodd" clip-rule="evenodd" d="M5.8925 24.399C2.06725 19.2181 2.48437 11.8689 7.17199 7.18123C12.3347 2.01856 20.735 2.01856 25.8976 7.18123C30.5853 11.8689 31.0024 19.2197 27.1771 24.399C27.9452 25.3011 28.5576 26.3141 28.9962 27.4098C34.6638 20.9164 34.4238 11.023 28.2382 4.83908C21.786 -1.61302 11.2836 -1.61302 4.83149 4.83908C-1.35246 11.023 -1.59412 20.9164 4.07174 27.4082C4.51038 26.3108 5.12612 25.3011 5.8925 24.399" fill="#47485D"/>
<path fill-rule="evenodd" clip-rule="evenodd" d="M16.5344 14.8895C15.6224 14.8895 14.8792 15.6327 14.8792 16.5447C14.8792 17.4568 15.6224 18.2 16.5344 18.2C17.4465 18.2 18.1897 17.4568 18.1897 16.5447C18.1897 15.6327 17.4465 14.8895 16.5344 14.8895M16.5341 21.5105C13.7963 21.5105 11.5684 19.2825 11.5684 16.5448C11.5684 13.807 13.7963 11.5791 16.5341 11.5791C19.2718 11.5791 21.4998 13.807 21.4998 16.5448C21.4998 19.2825 19.2718 21.5105 16.5341 21.5105" fill="#5A88FB"/>
</svg>
