<svg width="28" height="34" viewBox="0 0 28 34" fill="none" xmlns="http://www.w3.org/2000/svg">
<path fill-rule="evenodd" clip-rule="evenodd" d="M24.4304 24.3534H8.64382V2.70594H11.2747V14.8826L13.9056 12.1767L16.5365 14.8826V2.70594H19.1673V8.1178H24.4291L24.4304 24.3534ZM21.0274 0H8.64382C7.19289 0 6.01294 1.21496 6.01294 2.70593V24.3534C6.01294 25.8443 7.19289 27.0593 8.64382 27.0593H24.4291C25.88 27.0593 27.06 25.8443 27.06 24.3534V6.2047L21.0274 0Z" fill="#47485D"/>
<path fill-rule="evenodd" clip-rule="evenodd" d="M3.00658 6.0123H0V30.065C0 31.7216 1.34845 33.0715 3.00658 33.0715H21.0461V30.065H3.00658V6.0123Z" fill="#47485D"/>
<path d="M11.2748 14.8826V2.70593H16.5365V14.8826L13.9057 12.1767L11.2748 14.8826Z" fill="#5A88FB"/>
</svg>
